<svg width="134" height="24" viewBox="0 0 134 24" fill="none" xmlns="http://www.w3.org/2000/svg">
<path d="M0.333317 0.208008L11.5933 0.242675C12.9377 0.247514 14.238 0.722443 15.2691 1.58522C16.3001 2.44797 16.9969 3.64419 17.2386 4.96656C17.792 8.00656 16.216 10.5988 13.772 11.2961C13.7012 11.33 13.6357 11.3741 13.5773 11.4268C15.8946 12.0935 17.2786 13.6266 17.668 15.9239C18.308 19.7145 16.22 22.8306 12.268 23.276C11.388 23.356 10.5026 23.3906 9.61865 23.3787L0.325317 23.3972L0.333317 0.208008ZM5.30932 18.9547C5.37052 18.986 5.43616 19.0074 5.50398 19.0186L10.168 19.0028C11.768 18.9254 12.7253 17.9414 12.7733 16.4866C12.8213 15.0321 11.9333 13.9707 10.3733 13.7827C9.37065 13.7027 8.36397 13.676 7.35998 13.7027H5.32397L5.30932 18.9547ZM5.27732 9.38796H9.47998C9.74665 9.39586 10.0107 9.38006 10.2733 9.33726C11.2333 9.14269 11.9773 8.64392 12.2333 7.63059C12.3417 7.2724 12.3647 6.89347 12.3006 6.52475C12.2364 6.15602 12.0869 5.80738 11.8639 5.50648C11.6409 5.2059 11.3507 4.96129 11.0164 4.7929C10.6821 4.62437 10.313 4.5364 9.93865 4.53601C9.1613 4.49601 8.37865 4.53601 7.60265 4.53601H5.30932C5.30932 4.70532 5.27732 4.80801 5.27732 4.90934L5.29065 9.38927L5.27732 9.38796ZM89.8333 23.8067L88.0759 23.4867C83.5373 22.3973 81.2265 18.4905 81.6226 14.1761C81.9426 10.5761 83.7773 7.90944 87.2453 6.70944C92.0907 5.00277 97.7121 7.30664 98.5388 13.7412C98.6481 14.5919 98.6412 15.4574 98.6945 16.4079H86.1773C86.4654 18.0079 87.2667 19.1121 88.6639 19.704C90.9332 20.664 93.0586 20.1866 95.056 18.8961C95.1893 18.8187 95.2828 18.7292 95.3987 18.6466C95.4369 18.6426 95.4751 18.6426 95.5133 18.6466L97.4692 21.5239L95.5801 22.6907C94.3854 23.2773 93.0866 23.624 91.7599 23.7201C91.6071 23.7438 91.4563 23.7804 91.3092 23.8294L89.8333 23.8067ZM94.3732 13.3333C94.4601 11.2533 92.4772 9.66384 89.9653 9.76261C87.8787 9.84261 86.0213 11.6135 86.232 13.3333H94.3732ZM107.8 23.8067L105.636 23.3626C102.283 22.4559 99.8626 19.5361 99.6012 16.0721C99.3135 12.7759 100.268 9.97858 102.916 7.90253C106.916 4.74799 114.809 5.46269 116.376 12.9241C116.486 13.4604 116.557 14.0039 116.587 14.5508C116.627 15.1292 116.587 15.7145 116.587 16.3825H104.187C104.272 17.2494 104.649 18.0599 105.257 18.6841C106.631 20.1027 108.348 20.372 110.191 20.0441C111.392 19.8548 112.518 19.3369 113.444 18.5481L115.444 21.4788C114.911 21.8255 114.449 22.1988 113.932 22.4787C112.646 23.1657 111.231 23.5792 109.777 23.6935C109.607 23.7205 109.438 23.757 109.272 23.8028L107.8 23.8067ZM104.208 13.3294H112.341C112.448 11.3119 110.509 9.71059 108.077 9.75602C105.92 9.80146 104.051 11.5081 104.207 13.3294H104.208ZM25.5413 23.8067L23.9413 23.4867C20.6652 22.6973 18.748 20.2492 18.748 16.8866V6.63998H23.1587V16.3947C23.1587 17.7761 23.5745 18.9521 24.8855 19.5493C26.3041 20.1893 27.7625 20.1893 29.0721 19.2293C30.0321 18.5455 30.3027 17.4959 30.3054 16.372C30.3054 13.3498 30.3054 10.321 30.3054 7.28524V6.61858H34.6748V16.7825C34.6748 20.6186 32.2774 23.276 28.4387 23.676C28.252 23.6948 28.0654 23.756 27.8761 23.8094L25.5413 23.8067ZM67.24 23.3267V0.224008H83.3013V3.94799C83.3332 4.44132 83.1478 4.53466 82.6945 4.52932C79.5241 4.51332 76.3534 4.52932 73.1827 4.52932H72.1826V9.38796H79.9534C80.4387 9.38796 80.5506 9.52129 80.5401 9.99207V13.7066H72.1599V23.328L67.24 23.3267ZM117.724 23.3172V7.20524C117.724 6.52804 117.724 6.52146 118.427 6.52804L125.693 6.63471C129.133 6.90137 131.82 8.45067 133.096 11.8413C134.389 15.2905 133.416 19.2253 130.772 21.3787C129.263 22.6103 127.385 23.3024 125.437 23.3438L117.948 23.3761C117.871 23.3626 117.795 23.3438 117.721 23.3188L117.724 23.3172ZM121.937 19.7705H124.369C127.223 19.7705 129.02 18.1705 129.34 15.3215C129.571 13.2852 128.468 11.2546 126.709 10.5267C125.165 9.88672 123.549 10.2294 121.936 10.1267L121.937 19.7705ZM43.5666 10.4H36.0667V6.62121H49.5999V8.75454C49.6219 9.05907 49.5827 9.36458 49.4843 9.65331C49.3862 9.94203 49.2308 10.2084 49.028 10.4359L42.3347 18.8839L41.9159 19.4373H49.6667V23.3014H36.04V20.1373C36.04 19.9588 36.2267 19.7692 36.36 19.6066C38.6418 16.6956 40.9279 13.788 43.2186 10.8839C43.3279 10.7506 43.4053 10.6281 43.5653 10.3855L43.5666 10.4ZM50.8999 10.4174V7.03076C50.8999 6.89742 50.9187 6.78812 50.9345 6.63076H64.4278V9.65462C64.3837 9.8245 64.2929 9.97825 64.1655 10.0987C61.8366 13.0499 59.5083 15.9964 57.1814 18.9386L56.7854 19.488H64.0519C64.4575 19.488 64.6119 19.5868 64.5852 20.0214V23.3359H50.9279V20.0987C50.9279 19.9654 51.0721 19.8238 51.1679 19.6987L57.8639 11.1838L58.4506 10.4266L50.8999 10.4174Z" fill="black"/>
</svg>
