<svg width="118" height="48" viewBox="0 0 118 48" fill="none" xmlns="http://www.w3.org/2000/svg">
<path d="M106.353 9.34675C101.987 9.34675 96.7934 12.3148 95.7933 21.6188V0.640082H84.692V5.80542C86.5761 5.80542 87.7188 6.74675 87.7188 8.63208V21.5893C86.5188 11.8561 81.7826 9.28943 79.4999 9.31742C77.1027 9.31742 74.7628 10.7734 74.0492 13.4561V9.91745H64.4894V15.4241C62.9773 10.9707 58.3254 9.31742 55.5855 9.31742C54.0734 9.31742 47.5652 10.0027 45.6826 18.7921C43.9134 7.23205 33.3825 8.0894 28.9586 11.9427C28.7321 9.03208 28.132 5.09339 25.248 2.8094C23.6786 1.58273 21.3387 0.582764 18.056 0.582764H0.613316V6.80407C3.63998 6.83073 3.75202 9.71475 3.75202 10.1721V28.8653C3.75202 30.9775 2.95198 32.3455 0.583984 32.3761V38.5696H16.7373V32.2627C14.3974 32.2361 13.6265 30.9788 13.6265 28.8669V23.616H16.3668C19.6492 23.5014 22.3879 23.9014 25.3559 20.7053C25.2707 21.5909 25.0426 23.3879 25.0426 24.3014C24.928 28.896 25.4693 33.1479 28.2386 35.9455C28.296 36.0028 31.0653 39.1722 35.6587 39.2283C38.2267 39.2549 44.0492 38.7722 45.5919 30.0096C45.9346 31.1801 47.8187 39.2283 56.1228 39.2283C64.4854 39.2283 66.2255 31.608 66.6534 29.2681V38.6281C66.6267 41.1109 64.7999 42.252 63.6572 42.2814V47.4186H77.2572V42.2535C75.7455 42.0534 74.3174 40.6535 74.3174 38.4295L74.2028 34.8335C75.4028 38.1162 78.5973 39.2001 79.9094 39.2001C81.4788 39.2001 85.0466 38.344 86.0734 32.0935V38.4868H97.6894V32.18C99.1732 41.8842 116.068 41.7696 117.096 29.5535H109.076C108.763 31.2948 107.992 32.6934 106.536 32.6934C104.739 32.6934 103.968 30.6094 103.853 28.3268C103.796 27.5001 103.768 26.6146 103.796 26.0733H117.324C117.467 23.3055 117.609 19.0241 115.555 14.972C113.928 11.8334 110.788 9.34939 106.336 9.34939L106.353 9.34675ZM15.884 16.5107H13.6014V7.75077H15.8546C17.6241 7.75077 18.6227 9.23475 18.6227 12.0881C18.6494 15.2267 17.9373 16.4546 15.8828 16.5119L15.884 16.5107ZM33.1214 20.1907C33.236 17.8787 34.0348 15.6813 35.8613 15.6813C37.6587 15.6813 38.3732 17.8787 38.4881 20.1907C38.5148 20.9613 38.5455 21.0174 38.4881 21.5909H33.1226C33.0653 21.0201 33.0653 20.9907 33.1226 20.1907H33.1214ZM38.4281 29.5507C38.1427 31.292 37.3439 32.6906 35.888 32.6615C34.0906 32.6615 33.32 30.5775 33.2054 28.2946C33.1481 27.4679 33.1199 26.5827 33.1481 26.0414H45.0199C45.0466 27.4106 45.1055 27.7827 45.4466 29.5213H38.4265L38.4281 29.5507ZM56.0946 32.7467C53.9827 32.7201 53.1548 28.98 53.1548 24.2986C53.1548 19.6454 54.04 15.8229 56.0946 15.8508C58.2068 15.8774 59.0347 19.6175 59.0347 24.2986C59.0347 28.98 58.2347 32.7746 56.0946 32.7467ZM76.7573 32.6894C75.1039 32.6894 74.5308 30.9202 74.5308 28.5509V19.9029C74.4452 16.9628 75.3013 15.5654 76.9574 15.6227C78.6693 15.7079 79.6679 17.9053 79.6679 24.3268C79.6946 30.1775 78.5841 32.6894 76.7573 32.6894ZM109.149 21.5881H103.784C103.727 21.0174 103.757 20.9613 103.784 20.1879C103.899 17.8759 104.669 15.8508 106.467 15.8508C108.264 15.8508 109.035 17.8774 109.149 20.1879C109.207 20.9879 109.207 21.0146 109.149 21.5881Z" fill="black"/>
</svg>
